<svg width="20" height="20" viewBox="0 0 20 20" fill="none" xmlns="http://www.w3.org/2000/svg">
<g clip-path="url(#clip0_1_275)">
<path d="M0.229141 10.553L0.229843 10.5538L4.31203 14.6163C4.61785 14.9206 5.1125 14.9195 5.41691 14.6136C5.72129 14.3078 5.72012 13.8131 5.4143 13.5088L2.67352 10.7813L19.2188 10.7813C19.6502 10.7813 20 10.4315 20 10C20 9.56852 19.6502 9.21875 19.2188 9.21875L2.67355 9.21875L5.41426 6.49125C5.72008 6.18688 5.72125 5.69223 5.41687 5.38641C5.11246 5.08051 4.61777 5.07946 4.31199 5.38375L0.229805 9.44625L0.229101 9.44699C-0.0768757 9.75239 -0.0758991 10.2486 0.229141 10.553Z" fill="#62C3C6"/>
</g>
<defs>
<clipPath id="clip0_1_275">
<rect width="20" height="20" fill="white" transform="matrix(-1 0 0 -1 20 20)"/>
</clipPath>
</defs>
</svg>
