<svg width="16" height="17" viewBox="0 0 16 17" fill="none" xmlns="http://www.w3.org/2000/svg">
<path d="M15.7443 4.56461L15.2202 4.03687C15.0552 3.87205 14.8358 3.78125 14.6012 3.78125C14.3668 3.78125 14.1471 3.87205 13.9822 4.03687L8.00358 10.0157L2.0181 4.03023C1.85341 3.86542 1.6337 3.77475 1.3993 3.77475C1.16489 3.77475 0.945048 3.86542 0.780234 4.03023L0.256002 4.55472C-0.085334 4.8958 -0.085334 5.45138 0.256002 5.79246L7.38243 12.9445C7.54712 13.1092 7.76657 13.2252 8.00306 13.2252H8.00579C8.24033 13.2252 8.45978 13.1091 8.62446 12.9445L15.7443 5.81184C15.9092 5.64716 15.9997 5.42107 16 5.18666C16 4.95213 15.9092 4.72916 15.7443 4.56461Z" fill="#62C3C6"/>
</svg>
