<svg width="20" height="20" viewBox="0 0 20 20" fill="none" xmlns="http://www.w3.org/2000/svg">
<path d="M9.11496 1.60947C7.1279 1.6128 5.22318 2.40364 3.81812 3.8087C2.41306 5.21376 1.62223 7.11848 1.6189 9.10554C1.62056 11.0943 2.41045 13.0013 3.81552 14.4087C5.22058 15.8161 7.12624 16.6092 9.11496 16.6142C10.8787 16.6142 12.5039 15.9937 13.789 14.967L16.9102 18.0882C17.0684 18.2352 17.2773 18.3153 17.4932 18.3115C17.7091 18.3077 17.9151 18.2204 18.068 18.0679C18.2208 17.9155 18.3087 17.7097 18.313 17.4938C18.3174 17.2779 18.2379 17.0688 18.0913 16.9103L14.9701 13.7859C16.0361 12.4601 16.6173 10.8099 16.6173 9.10869C16.6173 4.9764 13.2472 1.60947 9.11496 1.60947ZM9.11496 3.27876C12.3465 3.27876 14.948 5.87719 14.948 9.10554C14.948 12.3339 12.3465 14.9481 9.11496 14.9481C5.88346 14.9481 3.28504 12.3433 3.28504 9.11183C3.28504 5.88034 5.88346 3.27876 9.11496 3.27876Z" fill="#28E3E9"/>
</svg>
