<svg width="108" height="44" viewBox="0 0 108 44" fill="none" xmlns="http://www.w3.org/2000/svg">
<g clip-path="url(#clip0_3001_290)">
<path d="M34.1141 22.407V0.697632H35.3267V21.1446H41.3564V22.3903H34.1141V22.407Z" fill="#045A5C"/>
<path d="M45.9078 22.407V0.697632H56.2065V1.94339H47.1204V9.84977H56.2065V11.1786H47.1204V21.1446H56.2065V22.3903L45.9078 22.407Z" fill="#045A5C"/>
<path d="M84.1459 11.0955V22.407H82.9333V0.697632H92.2519V1.94339H84.1459V9.84977H92.2685V11.0955H84.1459Z" fill="#045A5C"/>
<path d="M103.979 22.2408C103.099 22.5398 102.152 22.6727 101.222 22.6727C97.9162 22.6727 95.8399 21.0947 94.8931 17.9554L96.1389 17.5236C96.8365 20.1313 98.5308 21.4269 101.255 21.4269C102.8 21.4269 104.012 21.0283 104.893 20.2808C105.806 19.5002 106.255 18.3374 106.255 16.7927C106.288 15.4141 105.69 14.0853 104.644 13.1883C104.245 12.8395 103.813 12.5405 103.348 12.308C102.767 11.9758 102.019 11.6104 101.139 11.2117C99.4444 10.4477 98.2651 9.75006 97.6505 9.21854C96.6206 8.30499 96.0724 7.09245 96.0724 5.58094C96.0392 4.18569 96.6206 2.85689 97.6837 1.94334C98.7135 0.996567 100.009 0.548096 101.537 0.548096C104.046 0.548096 105.84 1.49487 106.903 3.38841L105.723 3.90332C105.325 3.23892 104.843 2.72401 104.262 2.42503C103.564 1.97656 102.65 1.76063 101.537 1.76063C100.358 1.76063 99.3946 2.09283 98.5973 2.75723C97.7501 3.43824 97.285 4.46807 97.3182 5.54772C97.3182 6.57754 97.7667 7.49109 98.6471 8.23854C99.162 8.63719 100.159 9.18532 101.637 9.86633C102.468 10.2318 103.282 10.6636 104.062 11.1453C104.66 11.5107 105.225 11.9426 105.723 12.4243C106.886 13.5704 107.517 15.1317 107.484 16.7595C107.434 19.5334 106.288 21.3605 103.979 22.2408Z" fill="#045A5C"/>
<path d="M69.5118 0L61.5386 20.9287H62.7345L64.6282 15.8958H64.6448L65.2594 14.3511L69.5118 3.15591L73.8804 14.5504L74.4119 15.8958L76.3222 20.9287H77.5514L69.5118 0Z" fill="#045A5C"/>
<path d="M-0.00439453 36.4093L1.09192 35.5621C4.11508 39.7479 9.03187 42.7709 15.0782 42.7709C21.7059 42.7709 27.2871 38.4025 27.2871 32.3564V32.2401C27.2871 24.7324 20.9584 21.7094 11.7228 21.7094H10.2943L9.86241 20.8623L26.1244 2.0929H2.25467V0.880371H27.8685V1.84375L11.7228 20.4968C22.0713 20.5633 28.5828 24.1843 28.5828 32.1903V32.3066C28.5828 39.1499 22.3703 44 14.9785 44C8.46711 43.9668 3.25132 40.8275 -0.00439453 36.4093Z" fill="#62C3C6"/>
<path d="M69.1796 30.4462C69.246 30.413 69.3125 30.3798 69.3623 30.3299C69.4786 30.2967 69.4786 30.2137 69.4287 30.1472C69.1796 29.516 68.9138 28.8683 68.6979 28.2537C68.4819 27.6391 68.3656 26.9747 68.1829 26.3103C68.1165 25.9449 68.0334 25.5462 67.967 25.1808C67.8839 24.6991 67.8507 24.2008 67.8507 23.7191C67.8507 23.0215 67.8507 22.3239 67.8839 21.5931C67.9171 21.1612 68.0002 20.7459 68.0666 20.3473C68.1165 20.0151 68.1663 19.6829 68.2494 19.3507C68.3656 18.7693 68.4985 18.1382 68.6148 17.5568C68.6812 17.125 68.7975 16.6765 68.864 16.2446C69.0135 15.547 69.163 14.8826 69.2958 14.2016C69.3291 13.9857 69.4121 13.7697 69.4453 13.5372C69.4453 13.4874 69.4619 13.4375 69.4952 13.3877C69.5948 13.5372 69.6281 13.7199 69.6613 13.8694C69.7776 14.268 69.844 14.6334 69.9603 15.0321C70.0267 15.4307 70.143 15.8792 70.2094 16.2778L70.4254 17.2578C70.4918 17.59 70.5417 17.8724 70.6081 18.2046C70.6745 18.5368 70.7576 18.869 70.7908 19.1514C70.824 19.3341 70.8573 19.5168 70.9071 19.6663L71.123 20.8954C71.2393 21.7758 71.2891 22.6727 71.2725 23.5696C71.2725 23.9185 71.2393 24.2839 71.2061 24.6327C71.1729 25.0646 71.0898 25.513 71.0234 25.9449C70.9735 26.2605 70.9237 26.5595 70.8406 26.8584C70.7742 27.174 70.6911 27.4896 70.5915 27.8052C70.4088 28.3866 70.226 28.9347 70.0101 29.516C69.9437 29.732 69.8274 29.9147 69.7609 30.1472C69.7277 30.1804 69.7277 30.2967 69.7609 30.2967C69.844 30.3465 69.9271 30.3798 70.0101 30.413C70.0267 30.3798 70.0599 30.3299 70.0765 30.2967C70.226 29.9645 70.3257 29.6821 70.4752 29.3499C70.6413 28.9845 70.824 28.6357 71.0234 28.2869C71.3556 27.772 71.6878 27.3069 72.02 26.792C72.4353 26.2106 72.9336 25.6791 73.4818 25.214C73.9136 24.8154 74.4286 24.4832 74.9103 24.1178C75.4252 23.7524 75.9734 23.3869 76.5215 23.0215C77.2856 22.5066 78.0497 22.0415 78.7972 21.5598C78.8969 21.51 78.9965 21.4768 79.0962 21.4436C79.0298 21.5931 78.9301 21.7425 78.847 21.8754C78.5148 22.4236 78.1494 22.9385 77.8172 23.4866C77.6012 23.852 77.3355 24.1842 77.1195 24.5164C76.7873 25.0313 76.4219 25.5462 76.0564 26.0445C75.8073 26.41 75.5249 26.7588 75.2093 27.0744C74.4784 27.8883 73.6313 28.5859 72.6844 29.1506C72.2193 29.4496 71.7542 29.7154 71.2559 29.9645C70.8573 30.1638 70.442 30.3465 70.0101 30.5126C69.6447 30.5459 69.2792 30.5459 68.9138 30.5126C68.8806 30.4794 67.7843 29.9977 67.3025 29.7818C66.5384 29.3998 65.8076 28.9347 65.1431 28.3866C64.4787 27.8717 63.8973 27.2903 63.3824 26.6259L62.502 25.4134C62.203 24.9815 61.8708 24.533 61.5884 24.068C61.0403 23.2208 60.5253 22.3903 59.9772 21.5432C59.9772 21.51 59.9606 21.4602 59.944 21.427C60.0104 21.4602 60.0602 21.4602 60.0935 21.4934C60.8243 21.9751 61.5884 22.4402 62.3193 22.9219C63.0502 23.4036 63.8143 23.9019 64.5452 24.4168C65.3425 24.9815 66.0734 25.6625 66.7046 26.4266C67.1198 26.9249 67.5019 27.4564 67.8341 28.0045C68.1663 28.5527 68.4155 29.1008 68.7145 29.6821C68.8141 29.8815 68.9138 30.0808 68.9636 30.2967C69.0633 30.3465 69.1297 30.3964 69.1796 30.4462Z" fill="#045A5C"/>
<path d="M69.5117 31.1438C69.8328 31.1438 70.0931 30.8835 70.0931 30.5624C70.0931 30.2414 69.8328 29.9811 69.5117 29.9811C69.1907 29.9811 68.9304 30.2414 68.9304 30.5624C68.9304 30.8835 69.1907 31.1438 69.5117 31.1438Z" fill="#045A5C"/>
<path d="M34.0477 28.7188C34.0477 27.772 34.9281 27.1907 35.742 27.1907C36.3898 27.1907 36.855 27.4232 37.2038 27.7056L36.9214 28.1374C36.639 27.9215 36.2902 27.7056 35.7752 27.7056C35.2271 27.7056 34.7122 28.0876 34.7122 28.7354C34.7122 29.35 35.2271 29.7652 35.7752 29.7652C36.2902 29.7652 36.6556 29.5493 36.938 29.3334L37.2702 29.7154C37.0875 29.9313 36.5393 30.2801 35.7752 30.2801C35.0112 30.2635 34.0477 29.732 34.0477 28.7188Z" fill="#62C3C6"/>
<path d="M40.4096 30.1804L40.1106 29.5327H38.6655L38.3665 30.1804H37.7353L39.1638 27.2571H39.712L41.0741 30.1804H40.4096ZM39.3964 27.9713L38.8814 29.051H39.8947L39.3964 27.9713Z" fill="#62C3C6"/>
<path d="M44.662 30.1804L42.5857 28.3533V30.1804H41.9213V27.2737H42.3033L44.2966 29.0177V27.2737H44.9444V30.1804H44.662Z" fill="#62C3C6"/>
<path d="M48.7483 30.1804L46.6719 28.3533V30.1804H46.0075V27.2737H46.3896L48.3828 29.0177V27.2737H49.0307V30.1804H48.7483Z" fill="#62C3C6"/>
<path d="M52.6019 30.1804L52.303 29.5327H50.8578L50.5588 30.1804H49.9276L51.3561 27.2571H51.9043L53.2664 30.1804H52.6019ZM51.5887 27.9713L51.0738 29.051H52.087L51.5887 27.9713Z" fill="#62C3C6"/>
<path d="M55.7912 30.1804H54.0969L54.1135 27.2737H55.7414C56.439 27.2737 56.8543 27.6391 56.8543 28.071C56.8543 28.4032 56.6218 28.6025 56.356 28.7021C56.6218 28.752 56.8875 29.051 56.8875 29.3665C56.9041 29.8815 56.3726 30.1804 55.7912 30.1804ZM55.6916 27.7388H54.7614V28.5194H55.6417C56.0072 28.5194 56.2563 28.3367 56.2563 28.1208C56.2563 27.9215 56.0736 27.7222 55.6916 27.7388ZM55.6749 28.9513H54.7614V29.732H55.6417C56.0072 29.732 56.2397 29.5659 56.2397 29.3665C56.2397 29.134 56.057 28.9513 55.6749 28.9513Z" fill="#62C3C6"/>
<path d="M57.9673 30.1804V27.2737H58.6151V30.1804H57.9673Z" fill="#62C3C6"/>
<path d="M61.1566 30.2303C60.625 30.2303 60.2928 30.114 59.7779 29.8317L59.9772 29.3666C60.4589 29.5991 60.7911 29.732 61.0901 29.732C61.4555 29.732 61.9705 29.6157 61.9705 29.3001C61.9705 29.0344 61.5552 28.9845 61.0403 28.9347C60.4257 28.8683 59.728 28.7852 59.728 28.1042C59.728 27.3734 60.625 27.2073 61.1732 27.2073C61.6715 27.2073 62.1034 27.3235 62.5352 27.5727L62.3525 27.9879C61.9871 27.7886 61.5552 27.689 61.1732 27.689C60.5752 27.689 60.3758 27.8883 60.3758 28.0544C60.3758 28.3534 61.0237 28.3534 61.223 28.37C61.8044 28.4198 62.6183 28.5195 62.6183 29.2669C62.6515 30.031 61.7379 30.2303 61.1566 30.2303Z" fill="#62C3C6"/>
<path d="M80.342 30.1804L80.043 29.5327H78.5979L78.2989 30.1804H77.6677L79.0962 27.2571H79.6443L81.0064 30.1804H80.342ZM79.3287 27.9713L78.8138 29.051H79.8271L79.3287 27.9713Z" fill="#045A5C"/>
<path d="M83.415 29.3167H82.5346V30.1804H81.8702V27.2737H83.415C84.1126 27.2737 84.694 27.6557 84.694 28.3035C84.6774 28.9347 84.1126 29.3167 83.415 29.3167ZM83.415 27.8052H82.5346V28.8184H83.3319C83.714 28.8184 84.013 28.6025 84.013 28.3201C84.013 28.071 83.7804 27.8052 83.415 27.8052Z" fill="#045A5C"/>
<path d="M87.3351 30.2635C86.4547 30.2635 85.5079 29.7486 85.5079 28.7354C85.5079 27.689 86.4547 27.1907 87.3351 27.1907C88.2155 27.1907 89.1457 27.7388 89.1457 28.7354C89.1457 29.7486 88.1989 30.2635 87.3351 30.2635ZM87.3351 27.7056C86.6209 27.7056 86.1391 28.1541 86.1391 28.752C86.1391 29.3168 86.6209 29.7652 87.3351 29.7652C88.0494 29.7652 88.5145 29.3334 88.5145 28.752C88.5145 28.1707 88.0328 27.7056 87.3351 27.7056Z" fill="#045A5C"/>
<path d="M91.6374 27.7554V30.1804H90.9729V27.7554H89.7105V27.2737H92.8998V27.7554H91.6374Z" fill="#045A5C"/>
<path d="M96.006 30.1804V29.0343H94.4778V30.1804H93.8134V27.2737H94.4944V28.5194H96.006V27.2737H96.687V30.1804H96.006Z" fill="#045A5C"/>
<path d="M97.7501 30.1804V27.2737H100.308V27.7554H98.4146V28.5194H100.042V28.9845H98.4146V29.7154H100.358V30.197H97.7501V30.1804Z" fill="#045A5C"/>
<path d="M103.448 30.1804L102.434 28.8849L102.069 29.2171V30.1804H101.404V27.2737H102.069V28.536L103.431 27.2737H104.145L102.866 28.4696L104.212 30.1804H103.448Z" fill="#045A5C"/>
<path d="M105.075 30.1804V27.2737H107.65V27.7554H105.756V28.5194H107.384V28.9845H105.756V29.7154H107.7V30.197H105.075V30.1804Z" fill="#045A5C"/>
</g>
<defs>
<clipPath id="clip0_3001_290">
<rect width="107.69" height="44" fill="white"/>
</clipPath>
</defs>
</svg>
