<svg width="12" height="10" viewBox="0 0 12 10" fill="none" xmlns="http://www.w3.org/2000/svg">
<path d="M11.2743 0.00030645C11.0912 0.00576291 10.9174 0.0822965 10.7897 0.213693L3.53454 7.46885L1.21344 5.14775C1.14849 5.0801 1.07069 5.02609 0.98461 4.98888C0.898525 4.95168 0.805883 4.93202 0.712107 4.93107C0.618331 4.93011 0.525308 4.94788 0.438485 4.98333C0.351661 5.01878 0.272784 5.07119 0.206471 5.1375C0.140158 5.20382 0.0877433 5.28269 0.0522962 5.36952C0.0168492 5.45634 -0.000917597 5.54936 3.64848e-05 5.64314C0.000990567 5.73692 0.0206462 5.82956 0.0578524 5.91564C0.0950586 6.00173 0.149068 6.07952 0.216716 6.14447L3.03618 8.96393C3.16837 9.09607 3.34763 9.1703 3.53454 9.1703C3.72145 9.1703 3.90071 9.09607 4.0329 8.96393L11.7864 1.21042C11.8883 1.11141 11.9578 0.983941 11.986 0.844716C12.0142 0.705491 11.9996 0.561005 11.9443 0.430193C11.8889 0.29938 11.7953 0.188342 11.6758 0.111633C11.5562 0.034923 11.4163 -0.0038807 11.2743 0.00030645Z" fill="#62C3C6"/>
</svg>
